<svg xmlns="http://www.w3.org/2000/svg" xmlns:xlink="http://www.w3.org/1999/xlink" version="1.1" x="0px" y="0px" viewBox="0 0 100 125" style="enable-background:new 0 0 100 100;" xml:space="preserve"><style type="text/css">
	.st0{display:none;}
</style><g><g><g><path d="M51.14,25h-0.02c0.48,0.64,0.78,1.42,0.78,2.28v12.17c0,2.1-1.71,3.8-3.8,3.8H35.92c-2.1,0-3.8-1.71-3.8-3.8V27.28     c0-0.86,0.3-1.64,0.78-2.28h-0.02c-1.26,0-2.28,1.02-2.28,2.28v18.26c0,1.26,1.02,2.28,2.28,2.28h18.26     c1.26,0,2.28-1.02,2.28-2.28V27.28C53.42,26.02,52.4,25,51.14,25z"/><path d="M50.38,27.28v12.18c0,1.26-1.02,2.28-2.28,2.28H35.92c-1.26,0-2.28-1.02-2.28-2.28V27.28c0-1.26,1.02-2.28,2.28-2.28     H48.1C49.36,25,50.38,26.02,50.38,27.28z"/></g><g><path d="M58.37,54.45v12.18c0,1.26-1.02,2.28-2.28,2.28H43.91c-1.26,0-2.28-1.02-2.28-2.28V54.45c0-1.25,1.02-2.28,2.28-2.28     h12.18C57.35,52.17,58.37,53.2,58.37,54.45z"/><path d="M59.13,52.17h-0.02c0.48,0.64,0.78,1.42,0.78,2.28v12.17c0,2.1-1.71,3.8-3.8,3.8H43.91c-2.1,0-3.8-1.71-3.8-3.8V54.45     c0-0.86,0.3-1.64,0.78-2.28h-0.02c-1.26,0-2.28,1.02-2.28,2.28v18.26c0,1.26,1.02,2.28,2.28,2.28h18.26     c1.26,0,2.28-1.02,2.28-2.28V54.45C61.41,53.2,60.39,52.17,59.13,52.17z"/></g><g><path d="M30.85,54.45v12.18c0,1.26-1.02,2.28-2.28,2.28H16.39c-1.26,0-2.28-1.02-2.28-2.28V54.45c0-1.25,1.02-2.28,2.28-2.28     h12.18C29.83,52.17,30.85,53.2,30.85,54.45z"/><path d="M31.61,52.17h-0.02c0.48,0.64,0.78,1.42,0.78,2.28v12.17c0,2.1-1.71,3.8-3.8,3.8H16.39c-2.1,0-3.8-1.71-3.8-3.8V54.45     c0-0.86,0.3-1.64,0.78-2.28h-0.02c-1.26,0-2.28,1.02-2.28,2.28v18.26c0,1.26,1.02,2.28,2.28,2.28h18.26     c1.26,0,2.28-1.02,2.28-2.28V54.45C33.89,53.2,32.87,52.17,31.61,52.17z"/></g><g><path d="M86.65,52.17h-0.02c0.48,0.64,0.78,1.42,0.78,2.28v12.17c0,2.1-1.71,3.8-3.8,3.8H71.43c-2.1,0-3.8-1.71-3.8-3.8V54.45     c0-0.86,0.3-1.64,0.78-2.28h-0.02c-1.26,0-2.28,1.02-2.28,2.28v18.26c0,1.26,1.02,2.28,2.28,2.28h18.26     c1.26,0,2.28-1.02,2.28-2.28V54.45C88.93,53.2,87.91,52.17,86.65,52.17z"/><path d="M85.89,54.45v12.18c0,1.26-1.02,2.28-2.28,2.28H71.43c-1.26,0-2.28-1.02-2.28-2.28V54.45c0-1.25,1.02-2.28,2.28-2.28     h12.18C84.87,52.17,85.89,53.2,85.89,54.45z"/></g></g></g><text x="0" y="115" fill="#000000" font-size="5px" font-weight="bold" font-family="'Helvetica Neue', Helvetica, Arial-Unicode, Arial, Sans-serif">Created by AB Designs</text><text x="0" y="120" fill="#000000" font-size="5px" font-weight="bold" font-family="'Helvetica Neue', Helvetica, Arial-Unicode, Arial, Sans-serif">from the Noun Project</text></svg>