<svg xmlns="http://www.w3.org/2000/svg" xmlns:xlink="http://www.w3.org/1999/xlink" version="1.1" x="0px" y="0px" viewBox="0 0 100 125" style="enable-background:new 0 0 100 100;" xml:space="preserve"><style type="text/css">
	.st0{display:none;}
</style><g><g><path d="M51.24,21.25h-19.8c-2.27,0-4.12,1.85-4.12,4.12v19.8c0,2.28,1.85,4.13,4.12,4.13h19.8c2.27,0,4.12-1.85,4.12-4.13v-19.8    C55.36,23.1,53.51,21.25,51.24,21.25z M32.27,25.37c0-1.36,1.11-2.47,2.47-2.47h13.2c1.36,0,2.47,1.11,2.47,2.47v13.2    c0,1.37-1.11,2.48-2.47,2.48h-13.2c-1.36,0-2.47-1.11-2.47-2.48V25.37z M53.71,45.17c0,1.37-1.11,2.48-2.47,2.48h-19.8    c-1.36,0-2.47-1.11-2.47-2.48v-19.8c0-1.36,1.11-2.47,2.47-2.47h0.02c-0.52,0.69-0.84,1.54-0.84,2.47v13.2    c0,2.28,1.85,4.13,4.12,4.13h13.2c2.27,0,4.12-1.85,4.12-4.13v-13.2c0-0.93-0.32-1.78-0.84-2.47h0.02c1.36,0,2.47,1.11,2.47,2.47    V45.17z"/><path d="M59.9,50.7H40.1c-2.27,0-4.12,1.85-4.12,4.13v19.8c0,2.27,1.85,4.12,4.12,4.12h19.8c2.27,0,4.12-1.85,4.12-4.12v-19.8    C64.02,52.55,62.17,50.7,59.9,50.7z M40.93,54.83c0-1.37,1.11-2.48,2.47-2.48h13.2c1.36,0,2.47,1.11,2.47,2.48v13.2    c0,1.36-1.11,2.47-2.47,2.47H43.4c-1.36,0-2.47-1.11-2.47-2.47V54.83z M62.37,74.63c0,1.36-1.11,2.47-2.47,2.47H40.1    c-1.36,0-2.47-1.11-2.47-2.47v-19.8c0-1.37,1.11-2.48,2.47-2.48h0.02c-0.52,0.7-0.84,1.55-0.84,2.48v13.2    c0,2.27,1.85,4.12,4.12,4.12h13.2c2.27,0,4.12-1.85,4.12-4.12v-13.2c0-0.93-0.32-1.78-0.84-2.48h0.02c1.36,0,2.47,1.11,2.47,2.48    V74.63z"/><path d="M89.73,50.7h-19.8c-2.27,0-4.12,1.85-4.12,4.13v19.8c0,2.27,1.85,4.12,4.12,4.12h19.8c2.27,0,4.13-1.85,4.13-4.12v-19.8    C93.86,52.55,92,50.7,89.73,50.7z M70.76,54.83c0-1.37,1.11-2.48,2.47-2.48h13.2c1.37,0,2.48,1.11,2.48,2.48v13.2    c0,1.36-1.11,2.47-2.48,2.47h-13.2c-1.36,0-2.47-1.11-2.47-2.47V54.83z M92.21,74.63c0,1.36-1.11,2.47-2.48,2.47h-19.8    c-1.36,0-2.47-1.11-2.47-2.47v-19.8c0-1.37,1.11-2.48,2.47-2.48h0.03c-0.53,0.7-0.85,1.55-0.85,2.48v13.2    c0,2.27,1.85,4.12,4.12,4.12h13.2c2.28,0,4.13-1.85,4.13-4.12v-13.2c0-0.93-0.33-1.78-0.85-2.48h0.02c1.37,0,2.48,1.11,2.48,2.48    V74.63z"/><path d="M30.07,50.7h-19.8c-2.27,0-4.13,1.85-4.13,4.13v19.8c0,2.27,1.86,4.12,4.13,4.12h19.8c2.27,0,4.12-1.85,4.12-4.12v-19.8    C34.19,52.55,32.34,50.7,30.07,50.7z M11.09,54.83c0-1.37,1.11-2.48,2.48-2.48h13.2c1.36,0,2.47,1.11,2.47,2.48v13.2    c0,1.36-1.11,2.47-2.47,2.47h-13.2c-1.37,0-2.48-1.11-2.48-2.47V54.83z M32.54,74.63c0,1.36-1.11,2.47-2.47,2.47h-19.8    c-1.37,0-2.48-1.11-2.48-2.47v-19.8c0-1.37,1.11-2.48,2.48-2.48h0.02c-0.52,0.7-0.85,1.55-0.85,2.48v13.2    c0,2.27,1.85,4.12,4.13,4.12h13.2c2.27,0,4.12-1.85,4.12-4.12v-13.2c0-0.93-0.32-1.78-0.85-2.48h0.03c1.36,0,2.47,1.11,2.47,2.48    V74.63z"/></g></g><text x="0" y="115" fill="#000000" font-size="5px" font-weight="bold" font-family="'Helvetica Neue', Helvetica, Arial-Unicode, Arial, Sans-serif">Created by AB Designs</text><text x="0" y="120" fill="#000000" font-size="5px" font-weight="bold" font-family="'Helvetica Neue', Helvetica, Arial-Unicode, Arial, Sans-serif">from the Noun Project</text></svg>